<?xml version="1.0" encoding="UTF-8" standalone="no"?>
<svg
   width="544"
   height="352"
   viewBox="0 0 544 352"
   version="1.1"
   id="svg968"
   inkscape:version="1.3.2 (091e20e, 2023-11-25, custom)"
   xml:space="preserve"
   sodipodi:docname="GuerraTaticaBR.svg"
   xmlns:inkscape="http://www.inkscape.org/namespaces/inkscape"
   xmlns:sodipodi="http://sodipodi.sourceforge.net/DTD/sodipodi-0.dtd"
   xmlns="http://www.w3.org/2000/svg"
   xmlns:svg="http://www.w3.org/2000/svg"
   xmlns:rdf="http://www.w3.org/1999/02/22-rdf-syntax-ns#"
   xmlns:cc="http://creativecommons.org/ns#"
   xmlns:dc="http://purl.org/dc/elements/1.1/"><defs
     id="defs962" /><sodipodi:namedview
     id="base"
     pagecolor="#ffffff"
     bordercolor="#666666"
     borderopacity="1.0"
     inkscape:pageopacity="0.0"
     inkscape:pageshadow="2"
     inkscape:zoom="0.98994949"
     inkscape:cx="358.09908"
     inkscape:cy="237.89092"
     inkscape:document-units="px"
     inkscape:current-layer="layer1"
     inkscape:document-rotation="0"
     showgrid="true"
     units="px"
     borderlayer="true"
     inkscape:pagecheckerboard="true"
     inkscape:showpageshadow="2"
     inkscape:deskcolor="#d1d1d1"
     inkscape:window-width="1920"
     inkscape:window-height="1017"
     inkscape:window-x="-8"
     inkscape:window-y="-8"
     inkscape:window-maximized="1"><inkscape:grid
       type="xygrid"
       id="grid324"
       spacingx="16"
       spacingy="16"
       empspacing="8"
       originx="0"
       originy="0"
       units="px"
       visible="true" /></sodipodi:namedview><metadata
     id="metadata965"><rdf:RDF><cc:Work
         rdf:about=""><dc:format>image/svg+xml</dc:format><dc:type
           rdf:resource="http://purl.org/dc/dcmitype/StillImage" /></cc:Work></rdf:RDF></metadata><g
     inkscape:label="Layer 1"
     inkscape:groupmode="layer"
     id="layer1"><path
       style="fill:#214478;stroke:none;stroke-width:1px;stroke-linecap:butt;stroke-linejoin:miter;stroke-opacity:1"
       d="M 16,79.999995 H 528 L 272,336 Z"
       id="path1"
       sodipodi:nodetypes="cccc" /><path
       style="fill:#2ca05a;stroke:none;stroke-width:1px;stroke-linecap:butt;stroke-linejoin:miter;stroke-opacity:1"
       d="M 48,63.999995 256,272 V 48 H 80 Z"
       id="path2"
       sodipodi:nodetypes="ccccc" /><path
       style="fill:#2ca05a;stroke:none;stroke-width:1px;stroke-linecap:butt;stroke-linejoin:miter;stroke-opacity:1"
       d="M 288,48 H 464 L 496,63.999995 288,271.99999 Z"
       id="path3"
       sodipodi:nodetypes="ccccc" /><path
       style="fill:#ffcc00;stroke:none;stroke-width:1px;stroke-linecap:butt;stroke-linejoin:miter;stroke-opacity:1"
       d="M 48,16 224,192 V 16 Z"
       id="path4"
       sodipodi:nodetypes="cccc" /><path
       style="fill:#ffcc00;stroke:none;stroke-width:1px;stroke-linecap:butt;stroke-linejoin:miter;stroke-opacity:1"
       d="M 320,16 V 192 L 496,16 Z"
       id="path5"
       sodipodi:nodetypes="cccc" /><circle
       style="fill:#ffffff;fill-rule:evenodd;stroke:none;stroke-width:3.77952;-inkscape-stroke:none"
       id="path6"
       cx="272"
       cy="128"
       r="48" /><circle
       style="fill:#214478;fill-opacity:1;fill-rule:evenodd;stroke:none;stroke-width:2.51968;-inkscape-stroke:none"
       id="circle6"
       cx="272"
       cy="128"
       r="32" /><path
       id="path8"
       style="fill:none;stroke:#ffffff;stroke-width:4;stroke-linecap:butt;stroke-linejoin:miter;stroke-opacity:1"
       d="m 240,128 h 64 M 272,96 v 64 m 16,-32 a 16,16 0 0 1 -16,16 16,16 0 0 1 -16,-16 16,16 0 0 1 16,-16 16,16 0 0 1 16,16 z" /><path
       sodipodi:type="star"
       style="fill:#ffffff;fill-opacity:1;fill-rule:evenodd;stroke:none;stroke-width:4;-inkscape-stroke:none"
       id="path9"
       inkscape:flatsided="false"
       sodipodi:sides="5"
       sodipodi:cx="110.10663"
       sodipodi:cy="135.86552"
       sodipodi:r1="17.180019"
       sodipodi:r2="5.6902113"
       sodipodi:arg1="-1.5707963"
       sodipodi:arg2="-0.9424778"
       inkscape:rounded="0.0139133"
       inkscape:randomized="0"
       d="m 110.10663,118.6855 c 0.18106,0 3.19814,12.47012 3.34462,12.57655 0.14648,0.10642 12.9386,-0.87764 12.99455,-0.70544 0.0559,0.1722 -10.87151,6.89508 -10.92746,7.06729 -0.0559,0.1722 4.83293,12.03413 4.68645,12.14055 -0.14648,0.10643 -9.9171,-8.20871 -10.09816,-8.20871 -0.18106,0 -9.95168,8.31514 -10.09816,8.20871 -0.146487,-0.10642 4.7424,-11.96835 4.68645,-12.14055 -0.056,-0.17221 -10.983412,-6.89509 -10.927461,-7.06729 0.05595,-0.17221 12.848061,0.81186 12.994551,0.70544 0.14648,-0.10643 3.16356,-12.57655 3.34462,-12.57655 z"
       inkscape:transform-center-y="-1.2251269"
       transform="matrix(0.74701113,0,0,0.74701113,13.749123,26.506941)" /><path
       sodipodi:type="star"
       style="fill:#ffffff;fill-opacity:1;fill-rule:evenodd;stroke:none;stroke-width:4;-inkscape-stroke:none"
       id="path10"
       inkscape:flatsided="false"
       sodipodi:sides="5"
       sodipodi:cx="110.10663"
       sodipodi:cy="135.86552"
       sodipodi:r1="17.180019"
       sodipodi:r2="5.6902113"
       sodipodi:arg1="-1.5707963"
       sodipodi:arg2="-0.9424778"
       inkscape:rounded="0.0139133"
       inkscape:randomized="0"
       d="m 110.10663,118.6855 c 0.18106,0 3.19814,12.47012 3.34462,12.57655 0.14648,0.10642 12.9386,-0.87764 12.99455,-0.70544 0.0559,0.1722 -10.87151,6.89508 -10.92746,7.06729 -0.0559,0.1722 4.83293,12.03413 4.68645,12.14055 -0.14648,0.10643 -9.9171,-8.20871 -10.09816,-8.20871 -0.18106,0 -9.95168,8.31514 -10.09816,8.20871 -0.146487,-0.10642 4.7424,-11.96835 4.68645,-12.14055 -0.056,-0.17221 -10.983412,-6.89509 -10.927461,-7.06729 0.05595,-0.17221 12.848061,0.81186 12.994551,0.70544 0.14648,-0.10643 3.16356,-12.57655 3.34462,-12.57655 z"
       inkscape:transform-center-y="-1.2251269"
       transform="matrix(0.74701113,0,0,0.74701113,45.749123,58.506942)" /><path
       sodipodi:type="star"
       style="fill:#ffffff;fill-opacity:1;fill-rule:evenodd;stroke:none;stroke-width:4;-inkscape-stroke:none"
       id="path11"
       inkscape:flatsided="false"
       sodipodi:sides="5"
       sodipodi:cx="110.10663"
       sodipodi:cy="135.86552"
       sodipodi:r1="17.180019"
       sodipodi:r2="5.6902113"
       sodipodi:arg1="-1.5707963"
       sodipodi:arg2="-0.9424778"
       inkscape:rounded="0.0139133"
       inkscape:randomized="0"
       d="m 110.10663,118.6855 c 0.18106,0 3.19814,12.47012 3.34462,12.57655 0.14648,0.10642 12.9386,-0.87764 12.99455,-0.70544 0.0559,0.1722 -10.87151,6.89508 -10.92746,7.06729 -0.0559,0.1722 4.83293,12.03413 4.68645,12.14055 -0.14648,0.10643 -9.9171,-8.20871 -10.09816,-8.20871 -0.18106,0 -9.95168,8.31514 -10.09816,8.20871 -0.146487,-0.10642 4.7424,-11.96835 4.68645,-12.14055 -0.056,-0.17221 -10.983412,-6.89509 -10.927461,-7.06729 0.05595,-0.17221 12.848061,0.81186 12.994551,0.70544 0.14648,-0.10643 3.16356,-12.57655 3.34462,-12.57655 z"
       inkscape:transform-center-y="-1.2251269"
       transform="matrix(0.74701113,0,0,0.74701113,77.749123,90.506942)" /><path
       sodipodi:type="star"
       style="fill:#ffffff;fill-opacity:1;fill-rule:evenodd;stroke:none;stroke-width:4;-inkscape-stroke:none"
       id="path12"
       inkscape:flatsided="false"
       sodipodi:sides="5"
       sodipodi:cx="110.10663"
       sodipodi:cy="135.86552"
       sodipodi:r1="17.180019"
       sodipodi:r2="5.6902113"
       sodipodi:arg1="-1.5707963"
       sodipodi:arg2="-0.9424778"
       inkscape:rounded="0.0139133"
       inkscape:randomized="0"
       d="m 110.10663,118.6855 c 0.18106,0 3.19814,12.47012 3.34462,12.57655 0.14648,0.10642 12.9386,-0.87764 12.99455,-0.70544 0.0559,0.1722 -10.87151,6.89508 -10.92746,7.06729 -0.0559,0.1722 4.83293,12.03413 4.68645,12.14055 -0.14648,0.10643 -9.9171,-8.20871 -10.09816,-8.20871 -0.18106,0 -9.95168,8.31514 -10.09816,8.20871 -0.146487,-0.10642 4.7424,-11.96835 4.68645,-12.14055 -0.056,-0.17221 -10.983412,-6.89509 -10.927461,-7.06729 0.05595,-0.17221 12.848061,0.81186 12.994551,0.70544 0.14648,-0.10643 3.16356,-12.57655 3.34462,-12.57655 z"
       inkscape:transform-center-y="-1.2251269"
       transform="matrix(0.74701113,0,0,0.74701113,109.74912,122.50694)" /><path
       sodipodi:type="star"
       style="fill:#ffffff;fill-opacity:1;fill-rule:evenodd;stroke:none;stroke-width:4;-inkscape-stroke:none"
       id="path13"
       inkscape:flatsided="false"
       sodipodi:sides="5"
       sodipodi:cx="110.10663"
       sodipodi:cy="135.86552"
       sodipodi:r1="17.180019"
       sodipodi:r2="5.6902113"
       sodipodi:arg1="-1.5707963"
       sodipodi:arg2="-0.9424778"
       inkscape:rounded="0.0139133"
       inkscape:randomized="0"
       d="m 110.10663,118.6855 c 0.18106,0 3.19814,12.47012 3.34462,12.57655 0.14648,0.10642 12.9386,-0.87764 12.99455,-0.70544 0.0559,0.1722 -10.87151,6.89508 -10.92746,7.06729 -0.0559,0.1722 4.83293,12.03413 4.68645,12.14055 -0.14648,0.10643 -9.9171,-8.20871 -10.09816,-8.20871 -0.18106,0 -9.95168,8.31514 -10.09816,8.20871 -0.146487,-0.10642 4.7424,-11.96835 4.68645,-12.14055 -0.056,-0.17221 -10.983412,-6.89509 -10.927461,-7.06729 0.05595,-0.17221 12.848061,0.81186 12.994551,0.70544 0.14648,-0.10643 3.16356,-12.57655 3.34462,-12.57655 z"
       inkscape:transform-center-y="-1.2251269"
       transform="matrix(0.74701113,0,0,0.74701113,141.74912,154.50694)" /><path
       sodipodi:type="star"
       style="fill:#ffffff;fill-opacity:1;fill-rule:evenodd;stroke:none;stroke-width:4;-inkscape-stroke:none"
       id="path14"
       inkscape:flatsided="false"
       sodipodi:sides="5"
       sodipodi:cx="110.10663"
       sodipodi:cy="135.86552"
       sodipodi:r1="17.180019"
       sodipodi:r2="5.6902113"
       sodipodi:arg1="-1.5707963"
       sodipodi:arg2="-0.9424778"
       inkscape:rounded="0.0139133"
       inkscape:randomized="0"
       d="m 110.10663,118.6855 c 0.18106,0 3.19814,12.47012 3.34462,12.57655 0.14648,0.10642 12.9386,-0.87764 12.99455,-0.70544 0.0559,0.1722 -10.87151,6.89508 -10.92746,7.06729 -0.0559,0.1722 4.83293,12.03413 4.68645,12.14055 -0.14648,0.10643 -9.9171,-8.20871 -10.09816,-8.20871 -0.18106,0 -9.95168,8.31514 -10.09816,8.20871 -0.146487,-0.10642 4.7424,-11.96835 4.68645,-12.14055 -0.056,-0.17221 -10.983412,-6.89509 -10.927461,-7.06729 0.05595,-0.17221 12.848061,0.81186 12.994551,0.70544 0.14648,-0.10643 3.16356,-12.57655 3.34462,-12.57655 z"
       inkscape:transform-center-y="-1.2251269"
       transform="matrix(-0.74701113,0,0,0.74701113,530.25088,26.506943)"
       inkscape:transform-center-x="-1.9574813e-06" /><path
       sodipodi:type="star"
       style="fill:#ffffff;fill-opacity:1;fill-rule:evenodd;stroke:none;stroke-width:4;-inkscape-stroke:none"
       id="path15"
       inkscape:flatsided="false"
       sodipodi:sides="5"
       sodipodi:cx="110.10663"
       sodipodi:cy="135.86552"
       sodipodi:r1="17.180019"
       sodipodi:r2="5.6902113"
       sodipodi:arg1="-1.5707963"
       sodipodi:arg2="-0.9424778"
       inkscape:rounded="0.0139133"
       inkscape:randomized="0"
       d="m 110.10663,118.6855 c 0.18106,0 3.19814,12.47012 3.34462,12.57655 0.14648,0.10642 12.9386,-0.87764 12.99455,-0.70544 0.0559,0.1722 -10.87151,6.89508 -10.92746,7.06729 -0.0559,0.1722 4.83293,12.03413 4.68645,12.14055 -0.14648,0.10643 -9.9171,-8.20871 -10.09816,-8.20871 -0.18106,0 -9.95168,8.31514 -10.09816,8.20871 -0.146487,-0.10642 4.7424,-11.96835 4.68645,-12.14055 -0.056,-0.17221 -10.983412,-6.89509 -10.927461,-7.06729 0.05595,-0.17221 12.848061,0.81186 12.994551,0.70544 0.14648,-0.10643 3.16356,-12.57655 3.34462,-12.57655 z"
       inkscape:transform-center-y="-1.2251269"
       transform="matrix(-0.74701113,0,0,0.74701113,498.25088,58.506943)" /><path
       sodipodi:type="star"
       style="fill:#ffffff;fill-opacity:1;fill-rule:evenodd;stroke:none;stroke-width:4;-inkscape-stroke:none"
       id="path16"
       inkscape:flatsided="false"
       sodipodi:sides="5"
       sodipodi:cx="110.10663"
       sodipodi:cy="135.86552"
       sodipodi:r1="17.180019"
       sodipodi:r2="5.6902113"
       sodipodi:arg1="-1.5707963"
       sodipodi:arg2="-0.9424778"
       inkscape:rounded="0.0139133"
       inkscape:randomized="0"
       d="m 110.10663,118.6855 c 0.18106,0 3.19814,12.47012 3.34462,12.57655 0.14648,0.10642 12.9386,-0.87764 12.99455,-0.70544 0.0559,0.1722 -10.87151,6.89508 -10.92746,7.06729 -0.0559,0.1722 4.83293,12.03413 4.68645,12.14055 -0.14648,0.10643 -9.9171,-8.20871 -10.09816,-8.20871 -0.18106,0 -9.95168,8.31514 -10.09816,8.20871 -0.146487,-0.10642 4.7424,-11.96835 4.68645,-12.14055 -0.056,-0.17221 -10.983412,-6.89509 -10.927461,-7.06729 0.05595,-0.17221 12.848061,0.81186 12.994551,0.70544 0.14648,-0.10643 3.16356,-12.57655 3.34462,-12.57655 z"
       inkscape:transform-center-y="-1.2251269"
       transform="matrix(-0.74701113,0,0,0.74701113,466.25088,90.506943)" /><path
       sodipodi:type="star"
       style="fill:#ffffff;fill-opacity:1;fill-rule:evenodd;stroke:none;stroke-width:4;-inkscape-stroke:none"
       id="path17"
       inkscape:flatsided="false"
       sodipodi:sides="5"
       sodipodi:cx="110.10663"
       sodipodi:cy="135.86552"
       sodipodi:r1="17.180019"
       sodipodi:r2="5.6902113"
       sodipodi:arg1="-1.5707963"
       sodipodi:arg2="-0.9424778"
       inkscape:rounded="0.0139133"
       inkscape:randomized="0"
       d="m 110.10663,118.6855 c 0.18106,0 3.19814,12.47012 3.34462,12.57655 0.14648,0.10642 12.9386,-0.87764 12.99455,-0.70544 0.0559,0.1722 -10.87151,6.89508 -10.92746,7.06729 -0.0559,0.1722 4.83293,12.03413 4.68645,12.14055 -0.14648,0.10643 -9.9171,-8.20871 -10.09816,-8.20871 -0.18106,0 -9.95168,8.31514 -10.09816,8.20871 -0.146487,-0.10642 4.7424,-11.96835 4.68645,-12.14055 -0.056,-0.17221 -10.983412,-6.89509 -10.927461,-7.06729 0.05595,-0.17221 12.848061,0.81186 12.994551,0.70544 0.14648,-0.10643 3.16356,-12.57655 3.34462,-12.57655 z"
       inkscape:transform-center-y="-1.2251269"
       transform="matrix(-0.74701113,0,0,0.74701113,434.25088,122.50694)" /><path
       sodipodi:type="star"
       style="fill:#ffffff;fill-opacity:1;fill-rule:evenodd;stroke:none;stroke-width:4;-inkscape-stroke:none"
       id="path18"
       inkscape:flatsided="false"
       sodipodi:sides="5"
       sodipodi:cx="110.10663"
       sodipodi:cy="135.86552"
       sodipodi:r1="17.180019"
       sodipodi:r2="5.6902113"
       sodipodi:arg1="-1.5707963"
       sodipodi:arg2="-0.9424778"
       inkscape:rounded="0.0139133"
       inkscape:randomized="0"
       d="m 110.10663,118.6855 c 0.18106,0 3.19814,12.47012 3.34462,12.57655 0.14648,0.10642 12.9386,-0.87764 12.99455,-0.70544 0.0559,0.1722 -10.87151,6.89508 -10.92746,7.06729 -0.0559,0.1722 4.83293,12.03413 4.68645,12.14055 -0.14648,0.10643 -9.9171,-8.20871 -10.09816,-8.20871 -0.18106,0 -9.95168,8.31514 -10.09816,8.20871 -0.146487,-0.10642 4.7424,-11.96835 4.68645,-12.14055 -0.056,-0.17221 -10.983412,-6.89509 -10.927461,-7.06729 0.05595,-0.17221 12.848061,0.81186 12.994551,0.70544 0.14648,-0.10643 3.16356,-12.57655 3.34462,-12.57655 z"
       inkscape:transform-center-y="-1.2251269"
       transform="matrix(-0.74701113,0,0,0.74701113,402.25088,154.50694)" /></g></svg>
